<svg width="330" height="81" viewBox="0 0 330 81" fill="none" xmlns="http://www.w3.org/2000/svg">
<g clip-path="url(#clip0_final_large)">
<!-- Размер шрифта увеличен -->
<text x="107" y="34" fill="white" font-family="Arial, 'Helvetica Neue', Helvetica, sans-serif" font-size="12.5" font-weight="bold" letter-spacing="0.8" text-anchor="start">АТОМЗАЩИТАИНФОРМ</text>

<path d="M94.9813 6.59961H94.1416V74.4576H94.9813V6.59961Z" fill="white"/>
<path d="M108.734 58.7775H107.467V48.9368H110.366C110.9 48.9188 111.433 48.9773 111.95 49.1105C112.366 49.2101 112.756 49.3987 113.091 49.6634C113.411 49.9162 113.666 50.241 113.836 50.6111C114.009 51.0539 114.095 51.5259 114.089 52.0011C114.116 52.4413 114.04 52.8816 113.867 53.2873C113.694 53.6931 113.428 54.0531 113.091 54.3389C112.289 54.9197 111.309 55.2045 110.319 55.1445H108.734V58.7775ZM108.734 54.0388H110.319C110.952 54.085 111.582 53.9182 112.109 53.5649C112.322 53.3869 112.489 53.1607 112.597 52.9052C112.704 52.6496 112.749 52.3721 112.727 52.0959C112.75 51.8218 112.706 51.5462 112.598 51.293C112.491 51.0397 112.323 50.8165 112.109 50.6427C111.577 50.3025 110.949 50.142 110.319 50.1846H108.734V54.0388Z" fill="white"/>
<path d="M121.172 58.9008C120.536 58.9155 119.905 58.7971 119.318 58.5533C118.78 58.33 118.298 57.9901 117.908 57.5582C117.503 57.0981 117.195 56.5607 117.005 55.9786C116.794 55.2931 116.692 54.5789 116.704 53.862C116.688 53.1437 116.795 52.4279 117.021 51.7454C117.217 51.1626 117.53 50.6253 117.94 50.1659C118.322 49.7285 118.799 49.383 119.334 49.1549C119.889 48.9147 120.487 48.791 121.092 48.7916C121.755 48.7811 122.412 48.9047 123.025 49.1549C123.568 49.3915 124.051 49.748 124.435 50.1974C124.832 50.6582 125.129 51.1961 125.307 51.777C125.516 52.4356 125.618 53.1237 125.608 53.8146C125.625 54.5614 125.507 55.3052 125.259 56.0102C125.07 56.5963 124.757 57.135 124.34 57.5898C123.947 58.0103 123.465 58.3392 122.93 58.5533C122.371 58.7793 121.775 58.8973 121.172 58.9008ZM121.298 57.732C121.714 57.7493 122.128 57.6698 122.508 57.4998C122.887 57.3298 123.222 57.074 123.485 56.7526C124.077 55.9038 124.357 54.8771 124.277 53.8462C124.289 53.2603 124.22 52.6756 124.071 52.1087C123.941 51.666 123.726 51.2528 123.437 50.8925C123.172 50.5766 122.828 50.3368 122.439 50.1974C122.021 50.0331 121.574 49.9526 121.124 49.9605C120.71 49.9617 120.3 50.0477 119.92 50.2132C119.541 50.369 119.204 50.6127 118.938 50.924C118.644 51.2833 118.423 51.6965 118.288 52.1403C118.119 52.693 118.039 53.2687 118.05 53.8462C118.034 54.4449 118.114 55.0423 118.288 55.6153C118.42 56.0604 118.641 56.4742 118.938 56.8316C119.222 57.1478 119.574 57.3962 119.967 57.5582C120.396 57.7 120.848 57.759 121.298 57.732Z" fill="white"/>
<path d="M135.667 58.5046C135.362 58.6396 135.043 58.7402 134.716 58.8047C134.318 58.8701 133.916 58.9018 133.512 58.8995C132.811 58.9103 132.114 58.798 131.452 58.5678C130.86 58.3501 130.321 58.0111 129.868 57.5727C129.438 57.12 129.109 56.5817 128.902 55.9931C128.672 55.3331 128.559 54.6382 128.569 53.9397C128.596 53.1886 128.746 52.4469 129.013 51.7441C129.225 51.1581 129.553 50.6208 129.979 50.1645C130.422 49.7137 130.964 49.3728 131.563 49.1694C132.204 48.9417 132.88 48.8294 133.56 48.8377C134.022 48.8272 134.484 48.8642 134.938 48.9483C135.235 49.0147 135.527 49.1045 135.809 49.2168L135.572 50.3225C135.264 50.2103 134.946 50.1309 134.621 50.0855C134.312 50.0362 134 50.0098 133.686 50.0066C133.192 49.9731 132.697 50.0446 132.233 50.2161C131.768 50.3876 131.346 50.6554 130.993 51.0017C130.322 51.8099 129.993 52.8464 130.074 53.8923C130.075 54.4301 130.166 54.9639 130.343 55.4718C130.5 55.9231 130.748 56.3372 131.072 56.6881C131.402 57.0247 131.802 57.2837 132.245 57.4463C132.752 57.6319 133.289 57.7229 133.829 57.7148C134.143 57.7141 134.456 57.6823 134.764 57.6201C135.057 57.5786 135.341 57.4878 135.603 57.3515L135.667 58.5046Z" fill="white"/>
<path d="M144.54 56.1382H140.326L139.36 58.7761H138.076L141.847 48.9512H143.114L146.806 58.7761H145.491L144.54 56.1382ZM140.738 54.9851H144.128L142.544 50.357L140.738 54.9851Z" fill="white"/>
<path d="M151.986 58.7743H150.719V50.1025H147.804V48.9336H154.902V50.1025H151.986V58.7743Z" fill="white"/>
<path d="M161.492 58.9026C160.857 58.9172 160.225 58.7988 159.639 58.5551C159.1 58.3318 158.619 57.9919 158.228 57.56C157.823 57.0999 157.516 56.5625 157.325 55.9804C157.109 55.2958 157.002 54.5816 157.009 53.8638C156.998 53.1445 157.11 52.4287 157.341 51.7472C157.537 51.1675 157.844 50.6311 158.244 50.1676C158.632 49.7296 159.114 49.3841 159.654 49.1567C160.22 48.9176 160.83 48.7992 161.445 48.8092C162.107 48.7987 162.765 48.9223 163.378 49.1725C163.921 49.4091 164.403 49.7655 164.788 50.215C165.179 50.6797 165.475 51.2164 165.659 51.7946C165.861 52.455 165.963 53.1418 165.96 53.8322C165.969 54.5785 165.851 55.3208 165.612 56.0278C165.416 56.611 165.103 57.1484 164.693 57.6074C164.299 58.0278 163.818 58.3568 163.283 58.5709C162.713 58.7955 162.105 58.9081 161.492 58.9026ZM161.619 57.7337C162.045 57.7599 162.471 57.6847 162.862 57.5145C163.253 57.3442 163.598 57.0837 163.869 56.7544C164.454 55.9023 164.733 54.8781 164.661 53.848C164.678 53.2609 164.603 52.6747 164.439 52.1105C164.321 51.6663 164.111 51.2519 163.821 50.8942C163.556 50.5784 163.212 50.3386 162.823 50.1992C162.404 50.036 161.958 49.9556 161.508 49.9623C161.089 49.9652 160.674 50.0511 160.288 50.215C159.916 50.375 159.585 50.6182 159.322 50.9258C159.028 51.2851 158.807 51.6983 158.672 52.1421C158.503 52.6947 158.423 53.2705 158.434 53.848C158.397 54.4432 158.456 55.0406 158.609 55.6171C158.733 56.0653 158.955 56.4806 159.258 56.8334C159.54 57.1458 159.886 57.3937 160.272 57.56C160.707 57.7001 161.163 57.759 161.619 57.7337Z" fill="white"/>
<path d="M178.984 58.7743H177.717L177.099 51.0976L174.612 58.7743H173.281L170.809 51.1292L170.207 58.7743H168.924L169.779 48.9494H171.364L174.025 57.4001L176.545 48.9336H178.129L178.984 58.7743Z" fill="white"/>
<path d="M47.3557 46.3296C46.6072 47.1587 45.7018 47.8322 44.6914 48.3114C43.681 48.7905 42.5856 49.0659 41.4682 49.1217C40.3507 49.1775 39.2332 49.0125 38.1799 48.6364C37.1266 48.2603 36.1582 47.6803 35.3304 46.9299C33.6601 45.4105 32.6596 43.2947 32.5468 41.0432C32.434 38.7918 33.2182 36.5871 34.7284 34.9094C35.478 34.0821 36.3839 33.4103 37.3941 32.9323C38.4044 32.4543 39.4994 32.1796 40.6162 32.1239C41.7331 32.0681 42.85 32.2325 43.9031 32.6074C44.9562 32.9824 45.9249 33.5607 46.7536 34.3092C48.4277 35.8263 49.4309 37.9428 49.5437 40.1955C49.6566 42.4482 48.8699 44.6538 47.3557 46.3296Z" fill="white"/>
<path d="M21.2767 40.911C21.2767 40.911 26.0297 38.5101 28.7707 27.8006C31.5116 17.0912 41.8733 12.1314 41.8733 12.1314C41.8733 12.1314 19.8984 -9.61923 3.2627 24.4835C7.401 25.5073 11.2168 27.5465 14.363 30.4156C17.5092 33.2847 19.8859 36.8926 21.2767 40.911Z" fill="white"/>
<path d="M23.3217 3.74373C23.3217 3.74373 40.2583 0.426644 50.2556 21.577C50.2556 21.577 61.9481 25.3679 72.2305 14.5321C72.2305 14.5321 55.0404 -8.90857 23.29 3.74373" fill="white"/>
<path d="M50.9527 56.9435C50.9527 56.9435 46.4848 54.0529 35.8221 57.0383C25.1595 60.0237 15.7009 53.6738 15.7009 53.6738C15.7009 53.6738 7.77915 83.5118 45.8035 80.8265C45.8035 80.8265 41.3199 67.7793 51.0002 56.9435" fill="white"/>
<path d="M17.6658 73.8135C17.6658 73.8135 6.32192 60.861 19.6938 41.622C19.6938 41.622 17.1113 29.6331 2.56702 26.1738C2.56702 26.1738 -9.18888 52.7421 17.6817 73.8135" fill="white"/>
<path d="M50.1131 23.4877C50.1131 23.4877 49.7962 28.7635 57.7179 36.5033C65.6397 44.2432 64.8951 55.616 64.8951 55.616C64.8951 55.616 94.76 47.4971 73.4505 16.127C70.4992 19.2211 66.8158 21.5266 62.7382 22.832C58.6605 24.1375 54.3194 24.4009 50.1131 23.5983" fill="white"/>
<path d="M81.4835 43.7871C81.4835 43.7871 75.9066 60.0566 52.5216 58.1611C52.5216 58.1611 43.3957 66.3591 47.6735 80.6541C47.6735 80.6541 76.6196 77.495 81.4835 43.7871Z" fill="white"/>
</g>
<defs>
<clipPath id="clip0_final_large">
<rect width="330" height="81" fill="white"/>
</clipPath>
</defs>
</svg>