<svg width="95" height="83" viewBox="0 -1 95 83" fill="none" xmlns="http://www.w3.org/2000/svg">
<path d="M47.3557 46.3296C46.6072 47.1587 45.7018 47.8322 44.6914 48.3114C43.681 48.7905 42.5856 49.0659 41.4682 49.1217C40.3507 49.1775 39.2332 49.0125 38.1799 48.6364C37.1266 48.2603 36.1582 47.6803 35.3304 46.9299C33.6601 45.4105 32.6596 43.2947 32.5468 41.0432C32.434 38.7918 33.2182 36.5871 34.7284 34.9094C35.478 34.0821 36.3839 33.4103 37.3941 32.9323C38.4044 32.4543 39.4994 32.1796 40.6162 32.1239C41.7331 32.0681 42.85 32.2325 43.9031 32.6074C44.9562 32.9824 45.9249 33.5607 46.7536 34.3092C48.4277 35.8263 49.4309 37.9428 49.5437 40.1955C49.6566 42.4482 48.8699 44.6538 47.3557 46.3296Z" fill="white"/>
<path d="M21.2767 40.911C21.2767 40.911 26.0297 38.5101 28.7707 27.8006C31.5116 17.0912 41.8733 12.1314 41.8733 12.1314C41.8733 12.1314 19.8984 -9.61923 3.2627 24.4835C7.401 25.5073 11.2168 27.5465 14.363 30.4156C17.5092 33.2847 19.8859 36.8926 21.2767 40.911Z" fill="white"/>
<path d="M23.3217 3.74373C23.3217 3.74373 40.2583 0.426644 50.2556 21.577C50.2556 21.577 61.9481 25.3679 72.2305 14.5321C72.2305 14.5321 55.0404 -8.90857 23.29 3.74373" fill="white"/>
<path d="M50.9527 56.9435C50.9527 56.9435 46.4848 54.0529 35.8221 57.0383C25.1595 60.0237 15.7009 53.6738 15.7009 53.6738C15.7009 53.6738 7.77915 83.5118 45.8035 80.8265C45.8035 80.8265 41.3199 67.7793 51.0002 56.9435" fill="white"/>
<path d="M17.6658 73.8135C17.6658 73.8135 6.32192 60.861 19.6938 41.622C19.6938 41.622 17.1113 29.6331 2.56702 26.1738C2.56702 26.1738 -9.18888 52.7421 17.6817 73.8135" fill="white"/>
<path d="M50.1131 23.4877C50.1131 23.4877 49.7962 28.7635 57.7179 36.5033C65.6397 44.2432 64.8951 55.616 64.8951 55.616C64.8951 55.616 94.76 47.4971 73.4505 16.127C70.4992 19.2211 66.8158 21.5266 62.7382 22.832C58.6605 24.1375 54.3194 24.4009 50.1131 23.5983" fill="white"/>
<path d="M81.4835 43.7871C81.4835 43.7871 75.9066 60.0566 52.5216 58.1611C52.5216 58.1611 43.3957 66.3591 47.6735 80.6541C47.6735 80.6541 76.6196 77.495 81.4835 43.7871Z" fill="white"/>
</svg>